<svg width="60" height="60" viewBox="0 0 60 60" fill="none" xmlns="http://www.w3.org/2000/svg">
<g id="Frame 160">
<rect id="Rectangle 1004" width="60" height="60" rx="30" fill="#B3B3B3"/>
<path id="Vector" d="M34.421 18.9636C33.2983 17.6973 31.7303 17 29.9996 17C28.2596 17 26.6864 17.6931 25.5689 18.9516C24.4393 20.2239 23.889 21.953 24.0182 23.8201C24.2743 27.5038 26.9576 30.5005 29.9996 30.5005C33.0416 30.5005 35.7201 27.5045 35.9804 23.8214C36.1113 21.9711 35.5575 20.2456 34.421 18.9636ZM40.1535 43.9999H19.8464C19.5806 44.0033 19.3174 43.9451 19.0759 43.829C18.8344 43.7131 18.6207 43.5422 18.4503 43.3291C18.0753 42.8606 17.9242 42.2213 18.0361 41.5746C18.523 38.7526 20.0426 36.3823 22.431 34.7183C24.5529 33.2409 27.2407 32.428 30 32.428C32.7594 32.428 35.4471 33.2415 37.569 34.7183C39.9575 36.3817 41.477 38.752 41.9638 41.574C42.0759 42.2207 41.9247 42.86 41.5498 43.3283C41.3794 43.5416 41.1658 43.7127 40.9241 43.8288C40.6826 43.9449 40.4194 44.0033 40.1535 43.9999Z" stroke="white"/>
</g>
</svg>
